<?xml version="1.0" encoding="UTF-8" standalone="no"?>
<!DOCTYPE svg PUBLIC "-//W3C//DTD SVG 1.1//EN"
 "http://www.w3.org/Graphics/SVG/1.1/DTD/svg11.dtd">
<!-- Generated by graphviz version 2.38.0 (20140413.2041)
 -->
<!-- Title: G Pages: 1 -->
<svg width="485pt" height="168pt"
 viewBox="0.00 0.00 485.00 168.00" xmlns="http://www.w3.org/2000/svg" xmlns:xlink="http://www.w3.org/1999/xlink">
<g id="graph0" class="graph" transform="scale(1 1) rotate(0) translate(4 164)">
<title>G</title>
<polygon fill="white" stroke="none" points="-4,4 -4,-164 481,-164 481,4 -4,4"/>
<g id="clust1" class="cluster"><title>cluster_family_0</title>
</g>
<!-- union_0 -->
<g id="node1" class="node"><title>union_0</title>
<ellipse fill="#1abc9c" stroke="white" cx="220.5" cy="-80" rx="3.5" ry="3.5"/>
</g>
<!-- siblings_0 -->
<g id="node4" class="node"><title>siblings_0</title>
<polygon fill="#1abc9c" stroke="#cccccc" stroke-width="0" points="260,-80.5 253,-80.5 253,-79.5 260,-79.5 260,-80.5"/>
</g>
<!-- union_0&#45;&gt;siblings_0 -->
<g id="edge3" class="edge"><title>union_0&#45;&gt;siblings_0</title>
<path fill="none" stroke="#1abc9c" d="M224.083,-80C230.913,-80 245.732,-80 252.715,-80"/>
</g>
<!-- Homer -->
<g id="node2" class="node"><title>Homer</title>
<polygon fill="white" stroke="#cccccc" points="188,-125 8,-125 8,-89 188,-89 188,-125"/>
<text text-anchor="middle" x="98" y="-102.8" font-family="Helvetica, Arial, sans-serif" font-size="14.00">Homer</text>
</g>
<!-- Homer&#45;&gt;union_0 -->
<g id="edge1" class="edge"><title>Homer&#45;&gt;union_0</title>
<path fill="none" stroke="#1abc9c" d="M188.038,-93.5C206.794,-93.5 221,-93.5 221,-93.5 221,-93.5 221,-87.686 221,-83.6889"/>
</g>
<!-- Marge -->
<g id="node3" class="node"><title>Marge</title>
<polygon fill="white" stroke="#cccccc" points="188,-71 8,-71 8,-35 188,-35 188,-71"/>
<text text-anchor="middle" x="98" y="-48.8" font-family="Helvetica, Arial, sans-serif" font-size="14.00">Marge</text>
</g>
<!-- Marge&#45;&gt;union_0 -->
<g id="edge2" class="edge"><title>Marge&#45;&gt;union_0</title>
<path fill="none" stroke="#1abc9c" d="M188.038,-66.5C206.794,-66.5 221,-66.5 221,-66.5 221,-66.5 221,-72.314 221,-76.3111"/>
</g>
<!-- Bart -->
<g id="node5" class="node"><title>Bart</title>
<polygon fill="white" stroke="#cccccc" points="469,-44 289,-44 289,-8 469,-8 469,-44"/>
<text text-anchor="middle" x="379" y="-21.8" font-family="Helvetica, Arial, sans-serif" font-size="14.00">Bart</text>
</g>
<!-- siblings_0&#45;&gt;Bart -->
<g id="edge4" class="edge"><title>siblings_0&#45;&gt;Bart</title>
<path fill="none" stroke="#1abc9c" d="M257,-79.297C257,-73.9191 257,-39.5 257,-39.5 257,-39.5 278.736,-39.5 278.736,-39.5"/>
<polygon fill="#1abc9c" stroke="#1abc9c" points="286.735,-29.5 286.736,-49.5 282.736,-49.5001 282.735,-29.5001 286.735,-29.5"/>
<polyline fill="none" stroke="#1abc9c" points="288.736,-39.5 278.736,-39.5001 "/>
</g>
<!-- Lisa -->
<g id="node6" class="node"><title>Lisa</title>
<polygon fill="white" stroke="#cccccc" points="469,-98 289,-98 289,-62 469,-62 469,-98"/>
<text text-anchor="middle" x="379" y="-75.8" font-family="Helvetica, Arial, sans-serif" font-size="14.00">Lisa</text>
</g>
<!-- siblings_0&#45;&gt;Lisa -->
<g id="edge5" class="edge"><title>siblings_0&#45;&gt;Lisa</title>
<path fill="none" stroke="#1abc9c" d="M260.034,-80C260.034,-80 278.811,-80 278.811,-80"/>
<polygon fill="#1abc9c" stroke="#1abc9c" points="286.81,-70 286.811,-90 282.811,-90.0001 282.81,-70.0001 286.81,-70"/>
<polyline fill="none" stroke="#1abc9c" points="288.811,-80 278.811,-80.0001 "/>
</g>
<!-- Maggie -->
<g id="node7" class="node"><title>Maggie</title>
<polygon fill="white" stroke="#cccccc" points="469,-152 289,-152 289,-116 469,-116 469,-152"/>
<text text-anchor="middle" x="379" y="-129.8" font-family="Helvetica, Arial, sans-serif" font-size="14.00">Maggie</text>
</g>
<!-- siblings_0&#45;&gt;Maggie -->
<g id="edge6" class="edge"><title>siblings_0&#45;&gt;Maggie</title>
<path fill="none" stroke="#1abc9c" d="M257,-80.703C257,-86.0809 257,-120.5 257,-120.5 257,-120.5 278.736,-120.5 278.736,-120.5"/>
<polygon fill="#1abc9c" stroke="#1abc9c" points="286.735,-110.5 286.736,-130.5 282.736,-130.5 282.735,-110.5 286.735,-110.5"/>
<polyline fill="none" stroke="#1abc9c" points="288.736,-120.5 278.736,-120.5 "/>
</g>
</g>
</svg>
